<?xml version="1.0" encoding="utf-8"?>
<!-- Generator: Adobe Illustrator 16.0.0, SVG Export Plug-In . SVG Version: 6.00 Build 0)  -->
<!DOCTYPE svg PUBLIC "-//W3C//DTD SVG 1.1//EN" "http://www.w3.org/Graphics/SVG/1.1/DTD/svg11.dtd">
<svg version="1.1" id="Layer_1" xmlns="http://www.w3.org/2000/svg" xmlns:xlink="http://www.w3.org/1999/xlink" x="0px" y="0px"
	 width="500px" height="160px" viewBox="-2.017 312.697 500 160" enable-background="new -2.017 312.697 500 160"
	 xml:space="preserve">
<path fill="#FFFFFF" d="M91.51,333.016c-20.888-20.889-55.106-20.889-75.995,0s-20.889,55.106,0,75.994
	c7.958,7.959,17.706,12.932,28.647,14.723c1.791,10.941,6.963,20.889,14.722,28.646c20.889,20.889,55.106,20.889,75.995,0
	c20.889-20.889,20.889-55.105,0-75.995c-7.957-7.957-17.705-12.931-28.647-14.721C104.242,350.921,99.269,340.774,91.51,333.016z
	 M124.335,441.836c-15.119,15.119-39.788,15.119-54.908,0c-4.774-4.775-8.355-10.742-9.947-17.109h47.746l0-38.196
	c-5.371-2.188-14.323-1.989-14.92-1.79c0,7.56,0,16.71,0,21.884v3.182H58.089l0,0c0,0-8.754,0.398-14.721-1.193
	c-6.565-1.791-12.733-5.172-17.508-9.947c-15.119-15.119-15.119-39.788,0-54.907c15.12-15.12,39.788-15.12,54.907,0
	c4.775,4.775,8.157,10.942,9.947,17.507c-8.753,0-38.594,0-38.594,0l-8.752-0.398v37.798c5.968,2.785,14.721,1.592,14.721,1.592
	v-24.668h3.183c7.56,0,25.464,0,31.035,0l0,0c0.796,0,8.952-0.199,14.722,1.193l0,0c6.564,1.79,12.333,5.173,17.307,10.146
	C139.454,402.049,139.454,426.717,124.335,441.836z"/>
<path fill="#FFFFFF" d="M385.731,381.47c9.225-3.5,15.588-10.818,15.588-22.59v-0.318c0-7-2.227-12.408-6.363-16.544
	c-4.771-4.772-11.77-7.318-21.316-7.318h-33.088v28.317l7.316,7.636l-7.316,7.318v29.59h15.908v-23.227h12.408h0.318l15.59,23.227
	h18.771L385.731,381.47z M385.092,359.834c0,6.045-4.453,10.181-12.088,10.181h-16.227v-20.999h15.908
	C380.321,349.335,385.092,352.835,385.092,359.834L385.092,359.834z"/>
<path fill="#FFFFFF" d="M287.203,333.507c-21.422,0-36.113,14.995-36.113,36.725c0,22.952,14.383,38.868,36.419,38.868
	c20.812,0,36.113-14.998,36.113-38.561C323.623,349.421,309.547,333.507,287.203,333.507z M287.816,394.715
	c-10.711,0-18.668-7.957-18.668-22.648c0-14.384,7.039-24.177,17.75-24.177c11.629,0,18.975,9.487,18.975,22.648
	C305.567,380.026,302.813,394.715,287.816,394.715z"/>
<path fill="#FFFFFF" d="M438.516,334.873h-20.02v72.688h15.398c14.17,0,28.953,0,40.35-11.396
	c6.469-6.467,9.547-16.323,9.547-25.563c0-9.856-3.387-19.404-9.547-25.564C465.004,335.489,454.533,334.873,438.516,334.873z
	 M443.752,393.392h-7.393v-44.659h4.928c9.24,0,14.477,0.308,19.711,5.543c3.697,3.695,5.545,8.932,5.545,16.016
	C466.237,385.384,458.229,393.392,443.752,393.392z"/>
<path fill="#FFFFFF" d="M214.525,394.248c-13.245,0-20.945-10.162-20.945-22.791c0-13.245,9.24-23.101,22.484-23.101
	c8.624,0,15.091,4.313,16.017,4.929l7.698-11.705c-1.848-1.848-9.548-8.314-24.946-8.314c-19.405,0-34.498,11.087-38.193,29.567
	l8.316,8.316c0,0-4.621,4.312-8.624,8.009c2.771,18.17,16.94,30.182,36.344,30.182c18.479,0,27.721-9.238,28.029-9.545
	l-7.392-11.706C230.847,389.32,223.764,394.248,214.525,394.248z"/>
<g>
	<path fill="#FFFFFF" d="M245.573,425.707h15.433v4.007h-10.553v7.379h9.839v4.007h-9.839v11.347h-4.88V425.707z"/>
	<path fill="#FFFFFF" d="M274.259,425.707v26.739h-4.88v-26.739H274.259z"/>
	<path fill="#FFFFFF" d="M283.464,452.446v-26.739h5.554l6.903,11.465c1.785,2.976,3.333,6.07,4.563,8.967h0.079
		c-0.317-3.571-0.437-7.022-0.437-11.108v-9.323h4.523v26.739h-5.039l-6.982-11.743c-1.706-2.936-3.491-6.229-4.8-9.244l-0.119,0.04
		c0.198,3.451,0.238,6.982,0.238,11.386v9.562H283.464z"/>
	<path fill="#FFFFFF" d="M319.252,444.869l-2.301,7.577h-5.039l8.569-26.739h6.229l8.688,26.739h-5.236l-2.42-7.577H319.252z
		 M326.908,441.18l-2.103-6.586c-0.516-1.627-0.952-3.452-1.349-4.999h-0.079c-0.397,1.547-0.794,3.412-1.27,4.999l-2.063,6.586
		H326.908z"/>
	<path fill="#FFFFFF" d="M342.74,452.446v-26.739h5.555l6.903,11.465c1.785,2.976,3.332,6.07,4.563,8.967h0.079
		c-0.317-3.571-0.437-7.022-0.437-11.108v-9.323h4.522v26.739h-5.038l-6.982-11.743c-1.706-2.936-3.491-6.229-4.801-9.244
		l-0.119,0.04c0.198,3.451,0.238,6.982,0.238,11.386v9.562H342.74z"/>
	<path fill="#FFFFFF" d="M392.333,451.652c-1.15,0.596-3.689,1.19-6.903,1.19c-8.489,0-13.646-5.315-13.646-13.449
		c0-8.807,6.109-14.123,14.281-14.123c3.214,0,5.515,0.675,6.507,1.19l-1.071,3.888c-1.27-0.556-3.015-1.031-5.236-1.031
		c-5.436,0-9.363,3.411-9.363,9.839c0,5.871,3.451,9.641,9.323,9.641c1.983,0,4.047-0.397,5.316-0.992L392.333,451.652z"/>
	<path fill="#FFFFFF" d="M415.069,440.584h-10.077v7.855h11.268v4.007h-16.147v-26.739h15.552v4.007h-10.672v6.903h10.077V440.584z"
		/>
</g>
</svg>
